<svg width="30" height="30" xmlns="http://www.w3.org/2000/svg">

 <g>
  <title>background</title>
  <rect fill="none" id="canvas_background" height="32" width="32" y="-1" x="-1"/>
 </g>
 <g>
  <title>Layer 1</title>
  <path stroke="null" transform="rotate(89.7001724243164 14.976738929748537,14.930227279663086) " id="svg_1" fill="black" d="m-0.071999,4.425612l0,21.009216c0,2.39991 1.977991,4.352761 4.408814,4.352761l21.279833,0c2.430823,0 4.408829,-1.952852 4.408829,-4.352761l0,-8.763466l-10.639909,0l0,3.48212l-5.290594,0l0,-3.48212l-3.585828,0c-2.917393,0 -5.290579,-2.343036 -5.290579,-5.223329l0,-5.281332l5.290579,0l0,5.281332l3.585828,0l0,-5.281332l5.290594,0.870552l0,4.410779l10.639909,0l0,-7.022421c0,-2.39991 -1.978006,-4.352747 -4.408829,-4.352747l-21.279833,0c-2.430823,0 -4.408814,1.952837 -4.408814,4.352747z"/>
 </g>
</svg>